<mxfile host="65bd71144e">
    <diagram id="fZ0vvQF5N2DYQitv8n2l" name="Page-1">
        <mxGraphModel dx="1811" dy="589" grid="1" gridSize="10" guides="1" tooltips="1" connect="1" arrows="1" fold="1" page="1" pageScale="1" pageWidth="850" pageHeight="1100" math="0" shadow="0">
            <root>
                <mxCell id="0"/>
                <mxCell id="1" parent="0"/>
                <mxCell id="2" value="&lt;font style=&quot;font-size: 17px;&quot;&gt;Orchestrator&lt;/font&gt;" style="rounded=0;whiteSpace=wrap;html=1;verticalAlign=bottom;" parent="1" vertex="1">
                    <mxGeometry x="-10" y="310" width="430" height="660" as="geometry"/>
                </mxCell>
                <mxCell id="3" value="Task configuration&lt;br&gt;(Recipe)" style="shape=parallelogram;perimeter=parallelogramPerimeter;whiteSpace=wrap;html=1;fixedSize=1;" parent="1" vertex="1">
                    <mxGeometry x="140" y="1030" width="140" height="60" as="geometry"/>
                </mxCell>
                <mxCell id="4" style="edgeStyle=orthogonalEdgeStyle;rounded=0;orthogonalLoop=1;jettySize=auto;html=1;" parent="1" source="3" edge="1">
                    <mxGeometry relative="1" as="geometry">
                        <mxPoint x="210" y="969" as="targetPoint"/>
                        <Array as="points">
                            <mxPoint x="210" y="969"/>
                        </Array>
                    </mxGeometry>
                </mxCell>
                <mxCell id="5" value="Configuration as Agent" style="rounded=0;whiteSpace=wrap;html=1;fillColor=#dae8fc;strokeColor=#6c8ebf;verticalAlign=bottom;fontSize=17;" parent="1" vertex="1">
                    <mxGeometry x="1162" y="394" width="205" height="372" as="geometry"/>
                </mxCell>
                <mxCell id="6" style="edgeStyle=orthogonalEdgeStyle;rounded=0;orthogonalLoop=1;jettySize=auto;html=1;" parent="1" source="7" target="74" edge="1">
                    <mxGeometry relative="1" as="geometry"/>
                </mxCell>
                <mxCell id="7" value="Actions" style="rounded=1;whiteSpace=wrap;html=1;absoluteArcSize=1;arcSize=14;strokeWidth=2;fontSize=17;" parent="1" vertex="1">
                    <mxGeometry x="1194.5" y="493" width="140" height="40" as="geometry"/>
                </mxCell>
                <mxCell id="8" style="edgeStyle=orthogonalEdgeStyle;rounded=0;orthogonalLoop=1;jettySize=auto;html=1;" parent="1" source="9" target="74" edge="1">
                    <mxGeometry relative="1" as="geometry"/>
                </mxCell>
                <mxCell id="9" value="Verifiers" style="rounded=1;whiteSpace=wrap;html=1;absoluteArcSize=1;arcSize=14;strokeWidth=2;fontSize=17;" parent="1" vertex="1">
                    <mxGeometry x="1194.5" y="670" width="140" height="40" as="geometry"/>
                </mxCell>
                <mxCell id="10" value="Prompts" style="rounded=1;whiteSpace=wrap;html=1;absoluteArcSize=1;arcSize=14;strokeWidth=2;fontSize=17;" parent="1" vertex="1">
                    <mxGeometry x="1194.5" y="422" width="140" height="40" as="geometry"/>
                </mxCell>
                <mxCell id="11" value="Execution" style="rounded=0;whiteSpace=wrap;html=1;fillColor=#dae8fc;strokeColor=#6c8ebf;verticalAlign=bottom;fontSize=17;" parent="1" vertex="1">
                    <mxGeometry x="638" y="227" width="406" height="650" as="geometry"/>
                </mxCell>
                <mxCell id="12" style="edgeStyle=orthogonalEdgeStyle;rounded=0;orthogonalLoop=1;jettySize=auto;html=1;fontSize=17;" parent="1" source="14" edge="1">
                    <mxGeometry relative="1" as="geometry">
                        <mxPoint x="190" y="380" as="targetPoint"/>
                    </mxGeometry>
                </mxCell>
                <mxCell id="13" value="Task" style="edgeLabel;html=1;align=center;verticalAlign=middle;resizable=0;points=[];fontSize=17;" parent="12" connectable="0" vertex="1">
                    <mxGeometry x="0.0838" y="-3" relative="1" as="geometry">
                        <mxPoint x="-19" y="-13" as="offset"/>
                    </mxGeometry>
                </mxCell>
                <mxCell id="14" value="User" style="shape=umlActor;verticalLabelPosition=bottom;verticalAlign=top;html=1;outlineConnect=0;fontSize=17;" parent="1" vertex="1">
                    <mxGeometry x="-60" y="350" width="30" height="60" as="geometry"/>
                </mxCell>
                <mxCell id="15" style="edgeStyle=orthogonalEdgeStyle;rounded=0;orthogonalLoop=1;jettySize=auto;html=1;fontSize=17;" parent="1" edge="1">
                    <mxGeometry relative="1" as="geometry">
                        <mxPoint x="205" y="520" as="targetPoint"/>
                        <mxPoint x="205" y="450" as="sourcePoint"/>
                    </mxGeometry>
                </mxCell>
                <mxCell id="16" value="Steps with required agents" style="edgeLabel;html=1;align=center;verticalAlign=middle;resizable=0;points=[];fontSize=17;" parent="15" connectable="0" vertex="1">
                    <mxGeometry x="0.1816" y="-1" relative="1" as="geometry">
                        <mxPoint x="1" y="-21" as="offset"/>
                    </mxGeometry>
                </mxCell>
                <mxCell id="17" value="Planner" style="shape=umlActor;verticalLabelPosition=bottom;verticalAlign=top;html=1;outlineConnect=0;fillColor=#ffe6cc;strokeColor=#d79b00;fontSize=17;" parent="1" vertex="1">
                    <mxGeometry x="190" y="360" width="30" height="60" as="geometry"/>
                </mxCell>
                <mxCell id="18" style="edgeStyle=orthogonalEdgeStyle;rounded=0;orthogonalLoop=1;jettySize=auto;html=1;fontSize=17;" parent="1" source="20" target="17" edge="1">
                    <mxGeometry relative="1" as="geometry"/>
                </mxCell>
                <mxCell id="19" value="Critic" style="edgeLabel;html=1;align=center;verticalAlign=middle;resizable=0;points=[];fontSize=17;" parent="18" connectable="0" vertex="1">
                    <mxGeometry x="0.0625" y="2" relative="1" as="geometry">
                        <mxPoint x="5" y="8" as="offset"/>
                    </mxGeometry>
                </mxCell>
                <mxCell id="20" value="Critic" style="shape=umlActor;verticalLabelPosition=bottom;verticalAlign=top;html=1;outlineConnect=0;fillColor=#ffe6cc;strokeColor=#d79b00;fontSize=17;" parent="1" vertex="1">
                    <mxGeometry x="350" y="360" width="30" height="60" as="geometry"/>
                </mxCell>
                <mxCell id="21" style="edgeStyle=orthogonalEdgeStyle;rounded=0;orthogonalLoop=1;jettySize=auto;html=1;entryX=0;entryY=0.3333333333333333;entryDx=0;entryDy=0;entryPerimeter=0;fontSize=17;" parent="1" source="17" target="20" edge="1">
                    <mxGeometry relative="1" as="geometry">
                        <Array as="points">
                            <mxPoint x="250" y="380"/>
                            <mxPoint x="250" y="380"/>
                        </Array>
                    </mxGeometry>
                </mxCell>
                <mxCell id="22" value="Plan" style="edgeLabel;html=1;align=center;verticalAlign=middle;resizable=0;points=[];fontSize=17;" parent="21" connectable="0" vertex="1">
                    <mxGeometry x="0.0089" y="1" relative="1" as="geometry">
                        <mxPoint y="-9" as="offset"/>
                    </mxGeometry>
                </mxCell>
                <mxCell id="23" style="edgeStyle=orthogonalEdgeStyle;rounded=0;orthogonalLoop=1;jettySize=auto;html=1;fontSize=17;" parent="1" source="24" edge="1">
                    <mxGeometry relative="1" as="geometry">
                        <mxPoint x="205.5" y="350" as="targetPoint"/>
                        <Array as="points">
                            <mxPoint x="205" y="340"/>
                        </Array>
                    </mxGeometry>
                </mxCell>
                <mxCell id="24" value="Agents Pool" style="rounded=1;whiteSpace=wrap;html=1;fillColor=#e1d5e7;strokeColor=#9673a6;verticalAlign=bottom;fontSize=17;" parent="1" vertex="1">
                    <mxGeometry x="20" y="170" width="310" height="120" as="geometry"/>
                </mxCell>
                <mxCell id="25" style="edgeStyle=orthogonalEdgeStyle;rounded=0;orthogonalLoop=1;jettySize=auto;html=1;fontSize=17;" parent="1" source="29" target="17" edge="1">
                    <mxGeometry relative="1" as="geometry">
                        <Array as="points">
                            <mxPoint x="50" y="705"/>
                            <mxPoint x="50" y="400"/>
                        </Array>
                    </mxGeometry>
                </mxCell>
                <mxCell id="26" value="Refine plan / clarification" style="edgeLabel;html=1;align=center;verticalAlign=middle;resizable=0;points=[];fontSize=17;" parent="25" connectable="0" vertex="1">
                    <mxGeometry x="-0.4369" y="2" relative="1" as="geometry">
                        <mxPoint x="2" y="-94" as="offset"/>
                    </mxGeometry>
                </mxCell>
                <mxCell id="27" style="edgeStyle=orthogonalEdgeStyle;rounded=0;orthogonalLoop=1;jettySize=auto;html=1;fontSize=17;" parent="1" source="29" target="14" edge="1">
                    <mxGeometry relative="1" as="geometry">
                        <Array as="points">
                            <mxPoint x="305" y="910"/>
                            <mxPoint x="-45" y="910"/>
                        </Array>
                    </mxGeometry>
                </mxCell>
                <mxCell id="28" value="final response" style="edgeLabel;html=1;align=center;verticalAlign=middle;resizable=0;points=[];fontSize=17;" parent="27" connectable="0" vertex="1">
                    <mxGeometry x="-0.4453" y="1" relative="1" as="geometry">
                        <mxPoint y="9" as="offset"/>
                    </mxGeometry>
                </mxCell>
                <mxCell id="29" value="" style="rounded=0;whiteSpace=wrap;html=1;fontSize=17;" parent="1" vertex="1">
                    <mxGeometry x="70" y="520" width="320" height="370" as="geometry"/>
                </mxCell>
                <mxCell id="30" value="Shared memory" style="rounded=0;whiteSpace=wrap;html=1;fillColor=#dae8fc;strokeColor=#6c8ebf;fontSize=17;" parent="1" vertex="1">
                    <mxGeometry x="290" y="530" width="90" height="350" as="geometry"/>
                </mxCell>
                <mxCell id="31" style="edgeStyle=orthogonalEdgeStyle;rounded=0;orthogonalLoop=1;jettySize=auto;html=1;entryX=0.992;entryY=0.469;entryDx=0;entryDy=0;entryPerimeter=0;dashed=1;endArrow=none;endFill=0;fontSize=17;" parent="1" source="32" target="30" edge="1">
                    <mxGeometry relative="1" as="geometry">
                        <Array as="points">
                            <mxPoint x="365" y="310"/>
                            <mxPoint x="430" y="310"/>
                            <mxPoint x="430" y="694"/>
                        </Array>
                    </mxGeometry>
                </mxCell>
                <mxCell id="32" value="Shared memory" style="rounded=0;whiteSpace=wrap;html=1;fillColor=#dae8fc;strokeColor=#6c8ebf;fontSize=17;" parent="1" vertex="1">
                    <mxGeometry x="335" y="240" width="60" height="60" as="geometry"/>
                </mxCell>
                <mxCell id="33" style="edgeStyle=orthogonalEdgeStyle;rounded=0;orthogonalLoop=1;jettySize=auto;html=1;entryX=0.011;entryY=0.213;entryDx=0;entryDy=0;entryPerimeter=0;fontSize=17;" parent="1" source="35" target="30" edge="1">
                    <mxGeometry relative="1" as="geometry">
                        <Array as="points">
                            <mxPoint x="235" y="605"/>
                        </Array>
                    </mxGeometry>
                </mxCell>
                <mxCell id="34" value="response" style="edgeLabel;html=1;align=center;verticalAlign=middle;resizable=0;points=[];fontSize=17;" parent="33" connectable="0" vertex="1">
                    <mxGeometry x="-0.0273" y="2" relative="1" as="geometry">
                        <mxPoint x="1" y="-3" as="offset"/>
                    </mxGeometry>
                </mxCell>
                <mxCell id="35" value="Agent 1" style="shape=umlActor;verticalLabelPosition=bottom;verticalAlign=top;html=1;outlineConnect=0;fontSize=17;" parent="1" vertex="1">
                    <mxGeometry x="150" y="550" width="30" height="60" as="geometry"/>
                </mxCell>
                <mxCell id="36" style="edgeStyle=orthogonalEdgeStyle;rounded=0;orthogonalLoop=1;jettySize=auto;html=1;fontSize=17;" parent="1" source="30" target="35" edge="1">
                    <mxGeometry relative="1" as="geometry">
                        <Array as="points">
                            <mxPoint x="270" y="580"/>
                            <mxPoint x="270" y="580"/>
                        </Array>
                    </mxGeometry>
                </mxCell>
                <mxCell id="37" value="observation" style="edgeLabel;html=1;align=center;verticalAlign=middle;resizable=0;points=[];fontSize=17;" parent="36" connectable="0" vertex="1">
                    <mxGeometry x="-0.0156" y="-2" relative="1" as="geometry">
                        <mxPoint x="-1" y="-8" as="offset"/>
                    </mxGeometry>
                </mxCell>
                <mxCell id="38" value="step 1" style="text;html=1;align=center;verticalAlign=middle;resizable=0;points=[];autosize=1;strokeColor=none;fillColor=none;fontSize=17;" parent="1" vertex="1">
                    <mxGeometry x="65" y="570" width="70" height="30" as="geometry"/>
                </mxCell>
                <mxCell id="39" style="edgeStyle=orthogonalEdgeStyle;rounded=0;orthogonalLoop=1;jettySize=auto;html=1;fontSize=17;" parent="1" target="43" edge="1">
                    <mxGeometry relative="1" as="geometry">
                        <mxPoint x="290" y="770" as="sourcePoint"/>
                        <Array as="points">
                            <mxPoint x="270" y="770"/>
                            <mxPoint x="270" y="770"/>
                        </Array>
                    </mxGeometry>
                </mxCell>
                <mxCell id="40" value="observation" style="edgeLabel;html=1;align=center;verticalAlign=middle;resizable=0;points=[];fontSize=17;" parent="39" connectable="0" vertex="1">
                    <mxGeometry x="-0.0156" y="-2" relative="1" as="geometry">
                        <mxPoint x="-1" y="-8" as="offset"/>
                    </mxGeometry>
                </mxCell>
                <mxCell id="41" style="edgeStyle=orthogonalEdgeStyle;rounded=0;orthogonalLoop=1;jettySize=auto;html=1;entryX=0.011;entryY=0.213;entryDx=0;entryDy=0;entryPerimeter=0;fontSize=17;" parent="1" source="43" edge="1">
                    <mxGeometry relative="1" as="geometry">
                        <mxPoint x="291" y="795" as="targetPoint"/>
                        <Array as="points">
                            <mxPoint x="235" y="795"/>
                        </Array>
                    </mxGeometry>
                </mxCell>
                <mxCell id="42" value="response" style="edgeLabel;html=1;align=center;verticalAlign=middle;resizable=0;points=[];fontSize=17;" parent="41" connectable="0" vertex="1">
                    <mxGeometry x="-0.0273" y="2" relative="1" as="geometry">
                        <mxPoint x="1" y="-3" as="offset"/>
                    </mxGeometry>
                </mxCell>
                <mxCell id="43" value="Agent N" style="shape=umlActor;verticalLabelPosition=bottom;verticalAlign=top;html=1;outlineConnect=0;fontSize=17;" parent="1" vertex="1">
                    <mxGeometry x="150" y="740" width="30" height="60" as="geometry"/>
                </mxCell>
                <mxCell id="44" value="step N" style="text;html=1;align=center;verticalAlign=middle;resizable=0;points=[];autosize=1;strokeColor=none;fillColor=none;fontSize=17;" parent="1" vertex="1">
                    <mxGeometry x="65" y="760" width="70" height="30" as="geometry"/>
                </mxCell>
                <mxCell id="45" value="..." style="text;html=1;align=center;verticalAlign=middle;resizable=0;points=[];autosize=1;strokeColor=none;fillColor=none;fontSize=17;" parent="1" vertex="1">
                    <mxGeometry x="145" y="670" width="40" height="30" as="geometry"/>
                </mxCell>
                <mxCell id="46" value="Physicist&amp;nbsp;" style="shape=umlActor;verticalLabelPosition=bottom;verticalAlign=top;html=1;outlineConnect=0;fontSize=17;" parent="1" vertex="1">
                    <mxGeometry x="160" y="180" width="30" height="60" as="geometry"/>
                </mxCell>
                <mxCell id="47" value="ML Engineer" style="shape=umlActor;verticalLabelPosition=bottom;verticalAlign=top;html=1;outlineConnect=0;fontSize=17;" parent="1" vertex="1">
                    <mxGeometry x="260" y="180" width="30" height="60" as="geometry"/>
                </mxCell>
                <mxCell id="48" value="Human Expert" style="shape=umlActor;verticalLabelPosition=bottom;verticalAlign=top;html=1;outlineConnect=0;fontSize=17;" parent="1" vertex="1">
                    <mxGeometry x="60" y="180" width="30" height="60" as="geometry"/>
                </mxCell>
                <mxCell id="49" value="" style="strokeWidth=2;html=1;shape=mxgraph.flowchart.start_2;whiteSpace=wrap;fontSize=17;" parent="1" vertex="1">
                    <mxGeometry x="826" y="240" width="30" height="30" as="geometry"/>
                </mxCell>
                <mxCell id="50" value="Observe" style="rounded=1;whiteSpace=wrap;html=1;absoluteArcSize=1;arcSize=14;strokeWidth=2;fontSize=17;" parent="1" vertex="1">
                    <mxGeometry x="771" y="350" width="140" height="40" as="geometry"/>
                </mxCell>
                <mxCell id="51" style="edgeStyle=orthogonalEdgeStyle;rounded=0;orthogonalLoop=1;jettySize=auto;html=1;fontSize=17;" parent="1" source="49" target="50" edge="1">
                    <mxGeometry relative="1" as="geometry"/>
                </mxCell>
                <mxCell id="52" value="task+context" style="edgeLabel;html=1;align=center;verticalAlign=middle;resizable=0;points=[];labelBackgroundColor=none;fontSize=17;" parent="51" connectable="0" vertex="1">
                    <mxGeometry x="-0.3071" relative="1" as="geometry">
                        <mxPoint x="-125" y="62" as="offset"/>
                    </mxGeometry>
                </mxCell>
                <mxCell id="53" style="edgeStyle=orthogonalEdgeStyle;rounded=0;orthogonalLoop=1;jettySize=auto;html=1;entryX=0;entryY=0.5;entryDx=0;entryDy=0;fontSize=17;" parent="1" source="54" target="50" edge="1">
                    <mxGeometry relative="1" as="geometry"/>
                </mxCell>
                <mxCell id="54" value="Shared &lt;br style=&quot;font-size: 17px;&quot;&gt;memory" style="shape=parallelogram;html=1;strokeWidth=2;perimeter=parallelogramPerimeter;whiteSpace=wrap;rounded=1;arcSize=12;size=0.23;fontSize=17;" parent="1" vertex="1">
                    <mxGeometry x="475" y="340" width="100" height="60" as="geometry"/>
                </mxCell>
                <mxCell id="55" value="Ask clarification question" style="rounded=1;whiteSpace=wrap;html=1;absoluteArcSize=1;arcSize=14;strokeWidth=2;fontSize=17;fillColor=#f8cecc;strokeColor=#b85450;" parent="1" vertex="1">
                    <mxGeometry x="482" y="612" width="140" height="40" as="geometry"/>
                </mxCell>
                <mxCell id="56" value="Save agent output to share memory" style="rounded=1;whiteSpace=wrap;html=1;absoluteArcSize=1;arcSize=14;strokeWidth=2;fontSize=17;" parent="1" vertex="1">
                    <mxGeometry x="771" y="792" width="140" height="40" as="geometry"/>
                </mxCell>
                <mxCell id="57" style="edgeStyle=orthogonalEdgeStyle;rounded=0;orthogonalLoop=1;jettySize=auto;html=1;entryX=0;entryY=0.75;entryDx=0;entryDy=0;fontSize=17;fillColor=#f8cecc;strokeColor=#b85450;" parent="1" source="58" target="50" edge="1">
                    <mxGeometry relative="1" as="geometry">
                        <Array as="points">
                            <mxPoint x="585" y="470"/>
                            <mxPoint x="585" y="380"/>
                        </Array>
                    </mxGeometry>
                </mxCell>
                <mxCell id="58" value="Other agent / user" style="shape=umlActor;verticalLabelPosition=bottom;verticalAlign=top;html=1;outlineConnect=0;fontSize=17;" parent="1" vertex="1">
                    <mxGeometry x="537" y="440" width="30" height="60" as="geometry"/>
                </mxCell>
                <mxCell id="59" style="edgeStyle=orthogonalEdgeStyle;rounded=0;orthogonalLoop=1;jettySize=auto;html=1;fontSize=17;fillColor=#f8cecc;strokeColor=#b85450;" parent="1" source="55" target="58" edge="1">
                    <mxGeometry relative="1" as="geometry">
                        <Array as="points">
                            <mxPoint x="552" y="556"/>
                            <mxPoint x="552" y="556"/>
                        </Array>
                    </mxGeometry>
                </mxCell>
                <mxCell id="60" style="edgeStyle=orthogonalEdgeStyle;rounded=0;orthogonalLoop=1;jettySize=auto;html=1;" parent="1" source="61" target="67" edge="1">
                    <mxGeometry relative="1" as="geometry"/>
                </mxCell>
                <mxCell id="61" value="Update belief" style="rounded=1;whiteSpace=wrap;html=1;absoluteArcSize=1;arcSize=14;strokeWidth=2;fontSize=17;" parent="1" vertex="1">
                    <mxGeometry x="771" y="430" width="140" height="40" as="geometry"/>
                </mxCell>
                <mxCell id="62" style="edgeStyle=orthogonalEdgeStyle;rounded=0;orthogonalLoop=1;jettySize=auto;html=1;fontSize=17;" parent="1" source="50" target="61" edge="1">
                    <mxGeometry relative="1" as="geometry"/>
                </mxCell>
                <mxCell id="63" value="" style="endArrow=none;dashed=1;html=1;dashPattern=1 3;strokeWidth=9;rounded=0;fontSize=17;" parent="1" edge="1">
                    <mxGeometry width="50" height="50" relative="1" as="geometry">
                        <mxPoint x="470" y="890" as="sourcePoint"/>
                        <mxPoint x="470" y="170" as="targetPoint"/>
                    </mxGeometry>
                </mxCell>
                <mxCell id="64" style="edgeStyle=orthogonalEdgeStyle;rounded=0;orthogonalLoop=1;jettySize=auto;html=1;" parent="1" source="67" target="56" edge="1">
                    <mxGeometry relative="1" as="geometry"/>
                </mxCell>
                <mxCell id="65" style="edgeStyle=orthogonalEdgeStyle;rounded=0;orthogonalLoop=1;jettySize=auto;html=1;entryX=1;entryY=0.5;entryDx=0;entryDy=0;" parent="1" source="67" target="61" edge="1">
                    <mxGeometry relative="1" as="geometry"/>
                </mxCell>
                <mxCell id="66" value="&lt;font style=&quot;font-size: 14px;&quot;&gt;n steps&lt;/font&gt;" style="edgeLabel;html=1;align=center;verticalAlign=middle;resizable=0;points=[];" parent="65" connectable="0" vertex="1">
                    <mxGeometry x="0.5127" y="-3" relative="1" as="geometry">
                        <mxPoint as="offset"/>
                    </mxGeometry>
                </mxCell>
                <mxCell id="67" value="Agent Policy" style="rounded=1;whiteSpace=wrap;html=1;absoluteArcSize=1;arcSize=14;strokeWidth=2;fontSize=17;verticalAlign=bottom;" parent="1" vertex="1">
                    <mxGeometry x="656.5" y="537" width="369" height="196" as="geometry"/>
                </mxCell>
                <mxCell id="68" style="edgeStyle=orthogonalEdgeStyle;rounded=0;orthogonalLoop=1;jettySize=auto;html=1;" parent="1" source="69" target="70" edge="1">
                    <mxGeometry relative="1" as="geometry"/>
                </mxCell>
                <mxCell id="69" value="Select action" style="rounded=1;whiteSpace=wrap;html=1;absoluteArcSize=1;arcSize=14;strokeWidth=2;fontSize=17;fillColor=#ffe6cc;strokeColor=#d79b00;" parent="1" vertex="1">
                    <mxGeometry x="859.5" y="574" width="140" height="40" as="geometry"/>
                </mxCell>
                <mxCell id="70" value="Action execution" style="rounded=1;whiteSpace=wrap;html=1;absoluteArcSize=1;arcSize=14;strokeWidth=2;fontSize=17;" parent="1" vertex="1">
                    <mxGeometry x="859.5" y="660" width="140" height="40" as="geometry"/>
                </mxCell>
                <mxCell id="71" style="edgeStyle=orthogonalEdgeStyle;rounded=0;orthogonalLoop=1;jettySize=auto;html=1;entryX=1;entryY=0.5;entryDx=0;entryDy=0;fillColor=#f8cecc;strokeColor=#b85450;" parent="1" source="72" target="55" edge="1">
                    <mxGeometry relative="1" as="geometry"/>
                </mxCell>
                <mxCell id="72" value="Verification" style="rounded=1;whiteSpace=wrap;html=1;absoluteArcSize=1;arcSize=14;strokeWidth=2;fontSize=17;fillColor=#f8cecc;strokeColor=#b85450;" parent="1" vertex="1">
                    <mxGeometry x="677.5" y="612" width="140" height="40" as="geometry"/>
                </mxCell>
                <mxCell id="73" value="" style="endArrow=none;dashed=1;html=1;dashPattern=1 3;strokeWidth=3;rounded=0;fontSize=17;" parent="1" edge="1">
                    <mxGeometry width="50" height="50" relative="1" as="geometry">
                        <mxPoint x="841.5" y="706" as="sourcePoint"/>
                        <mxPoint x="839" y="532" as="targetPoint"/>
                    </mxGeometry>
                </mxCell>
                <mxCell id="74" value="Step constraint" style="rounded=1;whiteSpace=wrap;html=1;absoluteArcSize=1;arcSize=14;strokeWidth=2;fontSize=17;" parent="1" vertex="1">
                    <mxGeometry x="1194.5" y="574" width="140" height="40" as="geometry"/>
                </mxCell>
                <mxCell id="75" style="edgeStyle=orthogonalEdgeStyle;rounded=0;orthogonalLoop=1;jettySize=auto;html=1;entryX=1.007;entryY=0.291;entryDx=0;entryDy=0;entryPerimeter=0;shape=flexArrow;" parent="1" source="74" target="67" edge="1">
                    <mxGeometry relative="1" as="geometry"/>
                </mxCell>
                <mxCell id="76" value="Step constraints" style="edgeLabel;html=1;align=center;verticalAlign=middle;resizable=0;points=[];labelBackgroundColor=none;" parent="75" connectable="0" vertex="1">
                    <mxGeometry x="-0.0085" relative="1" as="geometry">
                        <mxPoint x="1" as="offset"/>
                    </mxGeometry>
                </mxCell>
                <mxCell id="77" style="edgeStyle=orthogonalEdgeStyle;rounded=0;orthogonalLoop=1;jettySize=auto;html=1;shape=flexArrow;exitX=-0.024;exitY=0.28;exitDx=0;exitDy=0;exitPerimeter=0;" parent="1" source="5" target="79" edge="1">
                    <mxGeometry relative="1" as="geometry">
                        <mxPoint x="1211" y="449.5" as="sourcePoint"/>
                        <mxPoint x="1044" y="449.5" as="targetPoint"/>
                    </mxGeometry>
                </mxCell>
                <mxCell id="78" value="Agent definition" style="edgeLabel;html=1;align=center;verticalAlign=middle;resizable=0;points=[];labelBackgroundColor=none;" parent="77" connectable="0" vertex="1">
                    <mxGeometry x="-0.0085" relative="1" as="geometry">
                        <mxPoint x="74" as="offset"/>
                    </mxGeometry>
                </mxCell>
                <mxCell id="79" value="Agent" style="shape=umlActor;verticalLabelPosition=bottom;verticalAlign=top;html=1;outlineConnect=0;fontSize=17;" parent="1" vertex="1">
                    <mxGeometry x="991" y="255" width="30" height="60" as="geometry"/>
                </mxCell>
            </root>
        </mxGraphModel>
    </diagram>
</mxfile>